<svg width="1134" height="305" xmlns="http://www.w3.org/2000/svg" xmlns:xlink="http://www.w3.org/1999/xlink" overflow="hidden"><defs><clipPath id="clip0"><rect x="0" y="0" width="1134" height="305"/></clipPath></defs><g clip-path="url(#clip0)"><rect x="0" y="0" width="1134" height="305.456" fill="#FFFFFF" fill-opacity="0"/><path d="M401 102.653C401 95.1862 406.82 89.133 414 89.133 421.18 89.133 427 95.1862 427 102.653 427 110.12 421.18 116.173 414 116.173 406.82 116.173 401 110.12 401 102.653Z" fill="#D0602C" fill-rule="evenodd"/><path d="M379 165.747C379 158.28 385.044 152.227 392.5 152.227 399.956 152.227 406 158.28 406 165.747 406 173.214 399.956 179.268 392.5 179.268 385.044 179.268 379 173.214 379 165.747Z" fill="#D0602C" fill-rule="evenodd"/><path d="M487 172.758C487 165.291 493.044 159.238 500.5 159.238 507.956 159.238 514 165.291 514 172.758 514 180.225 507.956 186.278 500.5 186.278 493.044 186.278 487 180.225 487 172.758Z" fill="#D0602C" fill-rule="evenodd"/><path d="M559 185.777C559 178.31 565.044 172.257 572.5 172.257 579.956 172.257 586 178.31 586 185.777 586 193.244 579.956 199.297 572.5 199.297 565.044 199.297 559 193.244 559 185.777Z" fill="#1D7EB3" fill-rule="evenodd"/><path d="M445 222.332C445 215.141 451.044 209.312 458.5 209.312 465.956 209.312 472 215.141 472 222.332 472 229.522 465.956 235.351 458.5 235.351 451.044 235.351 445 229.522 445 222.332Z" fill="#1D7EB3" fill-rule="evenodd"/><path d="M525 71.6069C525 64.1399 530.82 58.0867 538 58.0867 545.18 58.0867 551 64.1399 551 71.6069 551 79.0739 545.18 85.1271 538 85.1271 530.82 85.1271 525 79.0739 525 71.6069Z" fill-rule="evenodd"/><path d="M497 86.1285C497 78.9381 503.044 73.1091 510.5 73.1091 517.956 73.1091 524 78.9381 524 86.1285 524 93.319 517.956 99.1479 510.5 99.1479 503.044 99.1479 497 93.319 497 86.1285Z" fill-rule="evenodd"/><path d="M460 97.145C460 93.8264 462.462 91.1361 465.5 91.1361 468.538 91.1361 471 93.8264 471 97.145 471 100.464 468.538 103.154 465.5 103.154 462.462 103.154 460 100.464 460 97.145Z" fill="#1D7EB3" fill-rule="evenodd"/><path d="M548 104.656C548 101.614 550.462 99.1479 553.5 99.1479 556.538 99.1479 559 101.614 559 104.656 559 107.698 556.538 110.164 553.5 110.164 550.462 110.164 548 107.698 548 104.656Z" fill="#D0602C" fill-rule="evenodd"/><path d="M516 226.839C516 223.796 518.686 221.33 522 221.33 525.314 221.33 528 223.796 528 226.839 528 229.881 525.314 232.347 522 232.347 518.686 232.347 516 229.881 516 226.839Z" fill-rule="evenodd"/><path d="M422 109.163 496.263 166.616" stroke="#D0602C" stroke-width="6.00088" stroke-miterlimit="8" fill="none" fill-rule="evenodd"/><path d="M400 166.248 491.596 172.552" stroke="#D0602C" stroke-width="6.00088" stroke-miterlimit="8" fill="none" fill-rule="evenodd"/><path d="M0 0 101.822 32.1445" stroke="#1D7EB3" stroke-width="6.00088" stroke-miterlimit="8" fill="none" fill-rule="evenodd" transform="matrix(1 0 0 -1.00149 469 219.472)"/><path d="M0 0 28.6814 78.623" stroke="#000000" stroke-width="6.00088" stroke-miterlimit="8" fill="none" fill-rule="evenodd" transform="matrix(-1 0 0 1.00149 533.681 82.1226)"/><path d="M510 86.1286 565.899 174.436" stroke="#000000" stroke-width="6.00088" stroke-miterlimit="8" fill="none" fill-rule="evenodd"/><path d="M414 109.163 453.628 209.908" stroke="#D0602C" stroke-width="6.00088" stroke-miterlimit="8" fill="none" fill-rule="evenodd"/><text font-family="Calisto MT,Calisto MT_MSFontService,sans-serif" font-weight="400" font-size="59" transform="matrix(1 0 0 1.00149 622.613 182)">BIN</text></g></svg>