<svg width="1512" height="607" xmlns="http://www.w3.org/2000/svg" xmlns:xlink="http://www.w3.org/1999/xlink" overflow="hidden"><defs><clipPath id="clip0"><rect x="0" y="0" width="1512" height="607"/></clipPath></defs><g clip-path="url(#clip0)"><rect x="0" y="0" width="1512" height="607.1" fill="#FFFFFF" fill-opacity="0"/><path d="M551 225.537C551 216.423 558.387 209.034 567.5 209.034 576.613 209.034 584 216.423 584 225.537 584 234.651 576.613 242.04 567.5 242.04 558.387 242.04 551 234.651 551 225.537Z" fill="#D0602C" fill-rule="evenodd"/><path d="M525 303.55C525 294.436 532.387 287.047 541.5 287.047 550.613 287.047 558 294.436 558 303.55 558 312.664 550.613 320.053 541.5 320.053 532.387 320.053 525 312.664 525 303.55Z" fill="#D0602C" fill-rule="evenodd"/><path d="M658 312.551C658 303.437 665.387 296.049 674.5 296.049 683.613 296.049 691 303.437 691 312.551 691 321.666 683.613 329.054 674.5 329.054 665.387 329.054 658 321.666 658 312.551Z" fill="#D0602C" fill-rule="evenodd"/><path d="M746 328.554C746 319.44 753.387 312.051 762.5 312.051 771.613 312.051 779 319.44 779 328.554 779 337.668 771.613 345.057 762.5 345.057 753.387 345.057 746 337.668 746 328.554Z" fill="#1D7EB3" fill-rule="evenodd"/><path d="M606 372.561C606 363.447 613.387 356.059 622.5 356.059 631.613 356.059 639 363.447 639 372.561 639 381.675 631.613 389.064 622.5 389.064 613.387 389.064 606 381.675 606 372.561Z" fill="#1D7EB3" fill-rule="evenodd"/><path d="M704 187.531C704 178.417 711.387 171.028 720.5 171.028 729.613 171.028 737 178.417 737 187.531 737 196.645 729.613 204.034 720.5 204.034 711.387 204.034 704 196.645 704 187.531Z" fill-rule="evenodd"/><path d="M670 205.534C670 196.42 677.387 189.031 686.5 189.031 695.613 189.031 703 196.42 703 205.534 703 214.648 695.613 222.036 686.5 222.036 677.387 222.036 670 214.648 670 205.534Z" fill-rule="evenodd"/><path d="M624 219.036C624 215.169 627.134 212.035 631 212.035 634.866 212.035 638 215.169 638 219.036 638 222.903 634.866 226.037 631 226.037 627.134 226.037 624 222.903 624 219.036Z" fill="#1D7EB3" fill-rule="evenodd"/><path d="M732 228.037C732 224.171 735.134 221.036 739 221.036 742.866 221.036 746 224.171 746 228.037 746 231.904 742.866 235.039 739 235.039 735.134 235.039 732 231.904 732 228.037Z" fill="#D0602C" fill-rule="evenodd"/><path d="M694 378.062C694 374.195 697.134 371.061 701 371.061 704.866 371.061 708 374.195 708 378.062 708 381.929 704.866 385.063 701 385.063 697.134 385.063 694 381.929 694 378.062Z" fill-rule="evenodd"/><path d="M578 234.038 669.294 304.575" stroke="#D0602C" stroke-width="8.33425" stroke-miterlimit="8" fill="none" fill-rule="evenodd"/><path d="M551 304.05 663.603 311.79" stroke="#D0602C" stroke-width="8.33425" stroke-miterlimit="8" fill="none" fill-rule="evenodd"/><path d="M0 0 125.175 39.5167" stroke="#1D7EB3" stroke-width="8.33425" stroke-miterlimit="8" fill="none" fill-rule="evenodd" transform="matrix(1 0 0 -1.00016 635 368.577)"/><path d="M0 0 35.2593 96.6548" stroke="#000000" stroke-width="8.33425" stroke-miterlimit="8" fill="none" fill-rule="evenodd" transform="matrix(-1 0 0 1.00016 715.259 200.033)"/><path d="M689 211.035 752.38 314.923" stroke="#000000" stroke-width="8.33425" stroke-miterlimit="8" fill="none" fill-rule="evenodd"/><path d="M568 234.038 616.716 357.725" stroke="#D0602C" stroke-width="8.33425" stroke-miterlimit="8" fill="none" fill-rule="evenodd"/><text font-family="Calisto MT,Calisto MT_MSFontService,sans-serif" font-weight="400" font-size="72" transform="matrix(1 0 0 1.00016 822.165 322)">BIN</text></g></svg>