<svg width="713" height="380" xmlns="http://www.w3.org/2000/svg" xmlns:xlink="http://www.w3.org/1999/xlink" overflow="hidden"><defs><clipPath id="clip0"><rect x="0" y="0" width="713" height="380"/></clipPath></defs><g clip-path="url(#clip0)"><rect x="0" y="0" width="713" height="380.089" fill="#FFFFFF" fill-opacity="0"/><path d="M65 100.524C65 86.437 76.4168 75.0175 90.5 75.0175 104.583 75.0175 116 86.437 116 100.524 116 114.61 104.583 126.03 90.5 126.03 76.4168 126.03 65 114.61 65 100.524Z" fill="#D0602C" fill-rule="evenodd"/><path d="M24 221.552C24 207.465 35.4167 196.046 49.5 196.046 63.5833 196.046 75 207.465 75 221.552 75 235.638 63.5833 247.058 49.5 247.058 35.4167 247.058 24 235.638 24 221.552Z" fill="#D0602C" fill-rule="evenodd"/><path d="M231 234.555C231 220.468 242.417 209.049 256.5 209.049 270.583 209.049 282 220.468 282 234.555 282 248.641 270.583 260.061 256.5 260.061 242.417 260.061 231 248.641 231 234.555Z" fill="#D0602C" fill-rule="evenodd"/><path d="M368 259.561C368 245.474 379.641 234.055 394 234.055 408.359 234.055 420 245.474 420 259.561 420 273.647 408.359 285.067 394 285.067 379.641 285.067 368 273.647 368 259.561Z" fill="#1D7EB3" fill-rule="evenodd"/><path d="M151 329.077C151 314.714 162.417 303.071 176.5 303.071 190.583 303.071 202 314.714 202 329.077 202 343.44 190.583 355.083 176.5 355.083 162.417 355.083 151 343.44 151 329.077Z" fill="#1D7EB3" fill-rule="evenodd"/><path d="M302 40.5094C302 26.4229 313.641 15.0035 328 15.0035 342.359 15.0035 354 26.4229 354 40.5094 354 54.596 342.359 66.0154 328 66.0154 313.641 66.0154 302 54.596 302 40.5094Z" fill-rule="evenodd"/><path d="M250 68.516C250 54.4295 261.417 43.0101 275.5 43.0101 289.583 43.0101 301 54.4295 301 68.516 301 82.6025 289.583 94.0219 275.5 94.0219 261.417 94.0219 250 82.6025 250 68.516Z" fill-rule="evenodd"/><path d="M178 89.5209C178 83.7206 182.925 79.0185 189 79.0185 195.075 79.0185 200 83.7206 200 89.5209 200 95.3213 195.075 100.023 189 100.023 182.925 100.023 178 95.3213 178 89.5209Z" fill="#1D7EB3" fill-rule="evenodd"/><path d="M346 104.024C346 97.9477 350.925 93.0217 357 93.0217 363.075 93.0217 368 97.9477 368 104.024 368 110.101 363.075 115.027 357 115.027 350.925 115.027 346 110.101 346 104.024Z" fill="#D0602C" fill-rule="evenodd"/><path d="M287 337.579C287 331.779 291.701 327.076 297.5 327.076 303.299 327.076 308 331.779 308 337.579 308 343.379 303.299 348.081 297.5 348.081 291.701 348.081 287 343.379 287 337.579Z" fill-rule="evenodd"/><path d="M107 113.026 249.154 222.866" stroke="#D0602C" stroke-width="8.33139" stroke-miterlimit="8" fill="none" fill-rule="evenodd"/><path d="M63.9999 222.052 239.334 234.104" stroke="#D0602C" stroke-width="8.33139" stroke-miterlimit="8" fill="none" fill-rule="evenodd"/><path d="M0 0 194.909 61.5312" stroke="#1D7EB3" stroke-width="8.33139" stroke-miterlimit="8" fill="none" fill-rule="evenodd" transform="matrix(1 0 0 -1.00023 195 323.607)"/><path d="M0 0 54.9021 150.501" stroke="#000000" stroke-width="8.33139" stroke-miterlimit="8" fill="none" fill-rule="evenodd" transform="matrix(-1 0 0 1.00023 319.902 60.0141)"/><path d="M280 77.018 378.688 238.794" stroke="#000000" stroke-width="8.33139" stroke-miterlimit="8" fill="none" fill-rule="evenodd"/><path d="M92 113.026 167.856 305.631" stroke="#D0602C" stroke-width="8.33139" stroke-miterlimit="8" fill="none" fill-rule="evenodd"/><text font-family="Calisto MT,Calisto MT_MSFontService,sans-serif" font-weight="400" font-size="107" transform="matrix(1 0 0 1.00023 481.428 244)">BIN</text></g></svg>