<svg width="1512" height="607" xmlns="http://www.w3.org/2000/svg" xmlns:xlink="http://www.w3.org/1999/xlink" overflow="hidden"><defs><clipPath id="clip0"><rect x="0" y="0" width="1512" height="607"/></clipPath></defs><g clip-path="url(#clip0)"><rect x="0" y="0" width="1512" height="607.1" fill="#FFFFFF" fill-opacity="0"/><path d="M503 213.535C503 199.45 514.417 188.031 528.5 188.031 542.583 188.031 554 199.45 554 213.535 554 227.621 542.583 239.039 528.5 239.039 514.417 239.039 503 227.621 503 213.535Z" fill="#D0602C" fill-rule="evenodd"/><path d="M462 335.055C462 320.693 473.417 309.051 487.5 309.051 501.583 309.051 513 320.693 513 335.055 513 349.417 501.583 361.059 487.5 361.059 473.417 361.059 462 349.417 462 335.055Z" fill="#D0602C" fill-rule="evenodd"/><path d="M669 348.557C669 334.472 680.417 323.053 694.5 323.053 708.583 323.053 720 334.472 720 348.557 720 362.643 708.583 374.061 694.5 374.061 680.417 374.061 669 362.643 669 348.557Z" fill="#D0602C" fill-rule="evenodd"/><path d="M806 373.061C806 358.7 817.417 347.057 831.5 347.057 845.583 347.057 857 358.7 857 373.061 857 387.423 845.583 399.066 831.5 399.066 817.417 399.066 806 387.423 806 373.061Z" fill="#1D7EB3" fill-rule="evenodd"/><path d="M588 442.573C588 428.487 599.417 417.069 613.5 417.069 627.583 417.069 639 428.487 639 442.573 639 456.658 627.583 468.077 613.5 468.077 599.417 468.077 588 456.658 588 442.573Z" fill="#1D7EB3" fill-rule="evenodd"/><path d="M740 153.525C740 139.44 751.417 128.021 765.5 128.021 779.583 128.021 791 139.44 791 153.525 791 167.611 779.583 179.029 765.5 179.029 751.417 179.029 740 167.611 740 153.525Z" fill-rule="evenodd"/><path d="M687 182.53C687 168.444 698.417 157.026 712.5 157.026 726.583 157.026 738 168.444 738 182.53 738 196.616 726.583 208.034 712.5 208.034 698.417 208.034 687 196.616 687 182.53Z" fill-rule="evenodd"/><path d="M615 203.033C615 196.957 619.925 192.032 626 192.032 632.075 192.032 637 196.957 637 203.033 637 209.109 632.075 214.035 626 214.035 619.925 214.035 615 209.109 615 203.033Z" fill="#1D7EB3" fill-rule="evenodd"/><path d="M784 217.036C784 210.96 788.925 206.034 795 206.034 801.075 206.034 806 210.96 806 217.036 806 223.112 801.075 228.038 795 228.038 788.925 228.038 784 223.112 784 217.036Z" fill="#D0602C" fill-rule="evenodd"/><path d="M724 451.074C724 444.998 728.925 440.072 735 440.072 741.075 440.072 746 444.998 746 451.074 746 457.15 741.075 462.076 735 462.076 728.925 462.076 724 457.15 724 451.074Z" fill-rule="evenodd"/><path d="M545 226.037 687.203 335.906" stroke="#D0602C" stroke-width="8.33425" stroke-miterlimit="8" fill="none" fill-rule="evenodd"/><path d="M501 335.055 676.395 347.11" stroke="#D0602C" stroke-width="8.33425" stroke-miterlimit="8" fill="none" fill-rule="evenodd"/><path d="M0 0 194.976 61.5524" stroke="#1D7EB3" stroke-width="8.33425" stroke-miterlimit="8" fill="none" fill-rule="evenodd" transform="matrix(1 0 0 -1.00016 633 436.624)"/><path d="M0 0 54.921 150.552" stroke="#000000" stroke-width="8.33425" stroke-miterlimit="8" fill="none" fill-rule="evenodd" transform="matrix(-1 0 0 1.00016 757.921 174.029)"/><path d="M718 191.031 816.722 352.852" stroke="#000000" stroke-width="8.33425" stroke-miterlimit="8" fill="none" fill-rule="evenodd"/><path d="M529 226.037 604.882 418.695" stroke="#D0602C" stroke-width="8.33425" stroke-miterlimit="8" fill="none" fill-rule="evenodd"/><text font-family="Calisto MT,Calisto MT_MSFontService,sans-serif" font-weight="400" font-size="107" transform="matrix(1 0 0 1.00016 918.976 357)">BIN</text></g></svg>