<svg width="491" height="305" xmlns="http://www.w3.org/2000/svg" xmlns:xlink="http://www.w3.org/1999/xlink" overflow="hidden"><defs><clipPath id="clip0"><rect x="0" y="0" width="491" height="305"/></clipPath></defs><g clip-path="url(#clip0)"><rect x="0" y="0" width="491" height="304.706" fill="#FFFFFF" fill-opacity="0"/><path d="M79 102.738C79 95.2649 85.0442 89.2067 92.5 89.2067 99.9558 89.2067 106 95.2649 106 102.738 106 110.211 99.9558 116.269 92.5 116.269 85.0442 116.269 79 110.211 79 102.738Z" fill="#D0602C" fill-rule="evenodd"/><path d="M58 165.884C58 158.411 63.8203 152.353 71 152.353 78.1797 152.353 84 158.411 84 165.884 84 173.357 78.1797 179.416 71 179.416 63.8203 179.416 58 173.357 58 165.884Z" fill="#D0602C" fill-rule="evenodd"/><path d="M166 172.901C166 165.427 172.044 159.369 179.5 159.369 186.956 159.369 193 165.427 193 172.901 193 180.374 186.956 186.432 179.5 186.432 172.044 186.432 166 180.374 166 172.901Z" fill="#D0602C" fill-rule="evenodd"/><path d="M238 185.931C238 178.458 243.82 172.399 251 172.399 258.18 172.399 264 178.458 264 185.931 264 193.404 258.18 199.462 251 199.462 243.82 199.462 238 193.404 238 185.931Z" fill="#1D7EB3" fill-rule="evenodd"/><path d="M124 222.014C124 214.541 130.044 208.483 137.5 208.483 144.956 208.483 151 214.541 151 222.014 151 229.488 144.956 235.546 137.5 235.546 130.044 235.546 124 229.488 124 222.014Z" fill="#1D7EB3" fill-rule="evenodd"/><path d="M203 71.1649C203 63.9685 209.044 58.1347 216.5 58.1347 223.956 58.1347 230 63.9685 230 71.1649 230 78.3612 223.956 84.195 216.5 84.195 209.044 84.195 203 78.3612 203 71.1649Z" fill-rule="evenodd"/><path d="M175 86.1997C175 79.0033 181.044 73.1695 188.5 73.1695 195.956 73.1695 202 79.0033 202 86.1997 202 93.396 195.956 99.2299 188.5 99.2299 181.044 99.2299 175 93.396 175 86.1997Z" fill-rule="evenodd"/><path d="M138 96.7241C138 93.6794 140.686 91.2113 144 91.2113 147.314 91.2113 150 93.6794 150 96.7241 150 99.7687 147.314 102.237 144 102.237 140.686 102.237 138 99.7687 138 96.7241Z" fill="#1D7EB3" fill-rule="evenodd"/><path d="M226 104.743C226 101.698 228.462 99.2299 231.5 99.2299 234.538 99.2299 237 101.698 237 104.743 237 107.787 234.538 110.255 231.5 110.255 228.462 110.255 226 107.787 226 104.743Z" fill="#D0602C" fill-rule="evenodd"/><path d="M195 227.026C195 223.981 197.462 221.513 200.5 221.513 203.538 221.513 206 223.981 206 227.026 206 230.071 203.538 232.539 200.5 232.539 197.462 232.539 195 230.071 195 227.026Z" fill-rule="evenodd"/><path d="M101 109.253 175.201 166.706" stroke="#D0602C" stroke-width="5.99593" stroke-miterlimit="8" fill="none" fill-rule="evenodd"/><path d="M79 166.385 170.521 172.689" stroke="#D0602C" stroke-width="5.99593" stroke-miterlimit="8" fill="none" fill-rule="evenodd"/><path d="M0 0 101.738 32.1179" stroke="#1D7EB3" stroke-width="5.99593" stroke-miterlimit="8" fill="none" fill-rule="evenodd" transform="matrix(1 0 0 -1.00232 147 219.627)"/><path d="M0 0 28.6577 78.5581" stroke="#000000" stroke-width="5.99593" stroke-miterlimit="8" fill="none" fill-rule="evenodd" transform="matrix(-1 0 0 1.00232 212.658 82.1904)"/><path d="M189 86.1997 244.853 174.507" stroke="#000000" stroke-width="5.99593" stroke-miterlimit="8" fill="none" fill-rule="evenodd"/><path d="M93 109.253 132.595 209.998" stroke="#D0602C" stroke-width="5.99593" stroke-miterlimit="8" fill="none" fill-rule="evenodd"/><text font-family="Calisto MT,Calisto MT_MSFontService,sans-serif" font-weight="400" font-size="59" transform="matrix(1 0 0 1.00232 301.067 182)">BIN</text></g></svg>