<svg width="227" height="116" xmlns="http://www.w3.org/2000/svg" xmlns:xlink="http://www.w3.org/1999/xlink" overflow="hidden"><defs><clipPath id="clip0"><rect x="0" y="0" width="227" height="116"/></clipPath></defs><g clip-path="url(#clip0)"><rect x="0" y="0" width="227" height="116.417" fill="#FFFFFF" fill-opacity="0"/><path d="M20 33.6203C20 29.4633 23.3578 26.0934 27.5 26.0934 31.6421 26.0934 35 29.4633 35 33.6203 35 37.7773 31.6421 41.1472 27.5 41.1472 23.3578 41.1472 20 37.7773 20 33.6203Z" fill="#D0602C" fill-rule="evenodd"/><path d="M7.99999 69.7496C7.99999 65.5926 11.3579 62.2226 15.5 62.2226 19.6421 62.2226 23 65.5926 23 69.7496 23 73.9067 19.6421 77.2766 15.5 77.2766 11.3579 77.2766 7.99999 73.9067 7.99999 69.7496Z" fill="#D0602C" fill-rule="evenodd"/><path d="M69 72.7604C69 68.6033 72.3578 65.2334 76.5 65.2334 80.6422 65.2334 84 68.6033 84 72.7604 84 76.9174 80.6422 80.2874 76.5 80.2874 72.3578 80.2874 69 76.9174 69 72.7604Z" fill="#D0602C" fill-rule="evenodd"/><path d="M109 80.7891C109 76.6321 112.358 73.2621 116.5 73.2621 120.642 73.2621 124 76.6321 124 80.7891 124 84.9462 120.642 88.3161 116.5 88.3161 112.358 88.3161 109 84.9462 109 80.7891Z" fill="#1D7EB3" fill-rule="evenodd"/><path d="M45 100.861C45 96.704 48.3578 93.3341 52.5 93.3341 56.6421 93.3341 60 96.704 60 100.861 60 105.018 56.6421 108.388 52.5 108.388 48.3578 108.388 45 105.018 45 100.861Z" fill="#1D7EB3" fill-rule="evenodd"/><path d="M90 15.5557C90 11.3986 93.3579 8.02873 97.5 8.02873 101.642 8.02873 105 11.3986 105 15.5557 105 19.7127 101.642 23.0826 97.5 23.0826 93.3579 23.0826 90 19.7127 90 15.5557Z" fill-rule="evenodd"/><path d="M73.9999 24.588C73.9999 20.431 77.3578 17.061 81.5 17.061 85.6422 17.061 89 20.431 89 24.588 89 28.745 85.6422 32.1149 81.5 32.1149 77.3578 32.1149 73.9999 28.745 73.9999 24.588Z" fill-rule="evenodd"/><path d="M53 30.1077C53 28.4449 54.567 27.097 56.5 27.097 58.433 27.097 60 28.4449 60 30.1077 60 31.7705 58.433 33.1185 56.5 33.1185 54.567 33.1185 53 31.7705 53 30.1077Z" fill="#1D7EB3" fill-rule="evenodd"/><path d="M103 34.6239C103 32.6839 104.343 31.1113 106 31.1113 107.657 31.1113 109 32.6839 109 34.6239 109 36.5638 107.657 38.1365 106 38.1365 104.343 38.1365 103 36.5638 103 34.6239Z" fill="#D0602C" fill-rule="evenodd"/><path d="M85 103.37C85 101.707 86.567 100.359 88.5 100.359 90.433 100.359 92 101.707 92 103.37 92 105.033 90.433 106.381 88.5 106.381 86.567 106.381 85 105.033 85 103.37Z" fill-rule="evenodd"/><path d="M33.5 37.6347 75.242 69.9961" stroke="#D0602C" stroke-width="3.33578" stroke-miterlimit="8" fill="none" fill-rule="evenodd"/><path d="M20.5 69.7496 71.9851 73.3004" stroke="#D0602C" stroke-width="3.33578" stroke-miterlimit="8" fill="none" fill-rule="evenodd"/><path d="M0 0 57.2331 18.068" stroke="#1D7EB3" stroke-width="3.33578" stroke-miterlimit="8" fill="none" fill-rule="evenodd" transform="matrix(1 0 0 -1.00359 58.5 99.9256)"/><path d="M0 0 16.1214 44.193" stroke="#000000" stroke-width="3.33578" stroke-miterlimit="8" fill="none" fill-rule="evenodd" transform="matrix(-1 0 0 1.00359 95.6215 22.5808)"/><path d="M82.5 24.588 113.92 74.3286" stroke="#000000" stroke-width="3.33578" stroke-miterlimit="8" fill="none" fill-rule="evenodd"/><path d="M28.5 37.6347 50.7742 94.3809" stroke="#D0602C" stroke-width="3.33578" stroke-miterlimit="8" fill="none" fill-rule="evenodd"/><text fill="#FFFFFF" font-family="Calisto MT,Calisto MT_MSFontService,sans-serif" font-weight="400" font-size="32" transform="matrix(1 0 0 1.00359 149.319 80)">BIN</text></g></svg>