<svg width="189" height="116" xmlns="http://www.w3.org/2000/svg" xmlns:xlink="http://www.w3.org/1999/xlink" overflow="hidden"><defs><clipPath id="clip0"><rect x="0" y="0" width="189" height="116"/></clipPath></defs><g clip-path="url(#clip0)"><rect x="0" y="0" width="189" height="116.502" fill="#FFFFFF" fill-opacity="0"/><path d="M29 38.6667C29 35.616 31.4624 33.1429 34.5 33.1429 37.5376 33.1429 40 35.616 40 38.6667 40 41.7174 37.5376 44.1905 34.5 44.1905 31.4624 44.1905 29 41.7174 29 38.6667Z" fill="#D0602C" fill-rule="evenodd"/><path d="M19 66.2857C19 62.9577 21.6863 60.2597 25 60.2597 28.3137 60.2597 31 62.9577 31 66.2857 31 69.6138 28.3137 72.3117 25 72.3117 21.6863 72.3117 19 69.6138 19 66.2857Z" fill="#D0602C" fill-rule="evenodd"/><path d="M66 69.2987C66 65.9706 68.4624 63.2727 71.5 63.2727 74.5376 63.2727 77 65.9706 77 69.2987 77 72.6268 74.5376 75.3247 71.5 75.3247 68.4624 75.3247 66 72.6268 66 69.2987Z" fill="#D0602C" fill-rule="evenodd"/><path d="M97 74.8225C97 71.7718 99.4624 69.2987 102.5 69.2987 105.538 69.2987 108 71.7718 108 74.8225 108 77.8732 105.538 80.3463 102.5 80.3463 99.4624 80.3463 97 77.8732 97 74.8225Z" fill="#1D7EB3" fill-rule="evenodd"/><path d="M48 90.3896C48 87.0616 50.4624 84.3636 53.5 84.3636 56.5376 84.3636 59 87.0616 59 90.3896 59 93.7177 56.5376 96.4156 53.5 96.4156 50.4624 96.4156 48 93.7177 48 90.3896Z" fill="#1D7EB3" fill-rule="evenodd"/><path d="M82 25.6104C82 22.5597 84.4624 20.0866 87.5 20.0866 90.5376 20.0866 93 22.5597 93 25.6104 93 28.6611 90.5376 31.1342 87.5 31.1342 84.4624 31.1342 82 28.6611 82 25.6104Z" fill-rule="evenodd"/><path d="M70 31.6364C70 28.5856 72.4624 26.1126 75.5 26.1126 78.5376 26.1126 81 28.5856 81 31.6364 81 34.6871 78.5376 37.1602 75.5 37.1602 72.4624 37.1602 70 34.6871 70 31.6364Z" fill-rule="evenodd"/><path d="M54 36.658C54 35.2713 55.1193 34.1472 56.5 34.1472 57.8807 34.1472 59 35.2713 59 36.658 59 38.0447 57.8807 39.1688 56.5 39.1688 55.1193 39.1688 54 38.0447 54 36.658Z" fill="#1D7EB3" fill-rule="evenodd"/><path d="M92 39.671C92 38.2843 92.8954 37.1602 94 37.1602 95.1046 37.1602 96 38.2843 96 39.671 96 41.0577 95.1046 42.1818 94 42.1818 92.8954 42.1818 92 41.0577 92 39.671Z" fill="#D0602C" fill-rule="evenodd"/><path d="M78 92.3983C78 91.2889 79.1193 90.3896 80.5 90.3896 81.8807 90.3896 83 91.2889 83 92.3983 83 93.5076 81.8807 94.4069 80.5 94.4069 79.1193 94.4069 78 93.5076 78 92.3983Z" fill-rule="evenodd"/><path d="M38.5001 42.684 70.3743 67.4134" stroke="#D0602C" stroke-width="3.33333" stroke-miterlimit="8" fill="none" fill-rule="evenodd"/><path d="M28.5001 66.7879 67.8141 69.5014" stroke="#D0602C" stroke-width="3.33333" stroke-miterlimit="8" fill="none" fill-rule="evenodd"/><path d="M0 0 43.7032 13.7967" stroke="#1D7EB3" stroke-width="3.33333" stroke-miterlimit="8" fill="none" fill-rule="evenodd" transform="matrix(1 0 0 -1.00433 58.5001 89.6834)"/><path d="M0 0 12.3103 33.7458" stroke="#000000" stroke-width="3.33333" stroke-miterlimit="8" fill="none" fill-rule="evenodd" transform="matrix(-1 0 0 1.00433 85.8104 30.6321)"/><path d="M76.5001 32.6407 100.492 70.6506" stroke="#000000" stroke-width="3.33333" stroke-miterlimit="8" fill="none" fill-rule="evenodd"/><path d="M34.5001 42.684 51.5087 86.0473" stroke="#D0602C" stroke-width="3.33333" stroke-miterlimit="8" fill="none" fill-rule="evenodd"/><text font-family="Calisto MT,Calisto MT_MSFontService,sans-serif" font-weight="400" font-size="21" transform="matrix(1 0 0 1.00433 129.312 73)">BIN</text></g></svg>